<svg width="39" height="38" viewBox="0 0 39 38" fill="none" xmlns="http://www.w3.org/2000/svg">
    <path d="M25.334 13.854c-.65 0-1.188-.538-1.188-1.187V7.125c0-1.71-1.06-2.77-2.77-2.77h-4.75c-1.71 0-2.772 1.06-2.772 2.77v5.542c0 .65-.538 1.188-1.187 1.188-.65 0-1.188-.539-1.188-1.188V7.125c0-3.024 2.122-5.146 5.146-5.146h4.75c3.024 0 5.146 2.122 5.146 5.146v5.542c0 .65-.538 1.188-1.187 1.188z" fill="#000"/>
    <path d="M12.666 28.152c-.649 0-1.187-.538-1.187-1.188 0-.665.538-1.187 1.188-1.187h18.62a.8.8 0 0 0 .791-.887l-1.077-9.009c-.38-3.072-.918-5.589-6.301-5.589H13.3c-5.384 0-5.922 2.518-6.286 5.59L5.589 27.755c-.46 3.895.744 7.078 6.302 7.078h14.218c5.003 0 6.476-2.581 6.397-5.938a.774.774 0 0 0-.792-.744H12.667z" fill="#000"/>
    <path d="M31.034 1.4a1.77 1.77 0 0 0-1.767 1.767v3.3h-3.3A1.77 1.77 0 0 0 24.2 8.234 1.77 1.77 0 0 0 25.967 10h3.3v3.3a1.77 1.77 0 0 0 1.767 1.767A1.77 1.77 0 0 0 32.8 13.3V10h3.3a1.77 1.77 0 0 0 1.767-1.766A1.77 1.77 0 0 0 36.1 6.467h-3.3v-3.3A1.77 1.77 0 0 0 31.034 1.4z" fill="#000" stroke="#fff"/>
</svg>
