<svg width="38" height="38" viewBox="0 0 38 38" fill="none" xmlns="http://www.w3.org/2000/svg">
    <path opacity=".4" d="M12.366 3.167h13.252c5.78 0 9.215 3.436 9.215 9.199v13.252c0 5.764-3.435 9.2-9.199 9.2H12.366c-5.763.015-9.2-3.42-9.2-9.184V12.366c0-5.763 3.437-9.2 9.2-9.2z" fill="#292D32"/>
    <path d="m8.66 18.16 6.793-6.792c.46-.459 1.22-.459 1.679 0 .459.46.459 1.22 0 1.679l-4.766 4.765H28.5c.65 0 1.188.539 1.188 1.188 0 .65-.539 1.188-1.188 1.188H12.366l4.766 4.765c.459.46.459 1.22 0 1.679a1.175 1.175 0 0 1-.84.348c-.3 0-.601-.11-.839-.348l-6.792-6.793a1.186 1.186 0 0 1 0-1.678z" fill="#292D32"/>
</svg>
