<svg width="25" height="25" viewBox="0 0 25 25" fill="none" xmlns="http://www.w3.org/2000/svg">
    <path opacity=".4" d="M21.363 9.853a14.288 14.288 0 0 0-1.598-2.069l-3.697 3.696c.118.363.187.755.187 1.167a3.956 3.956 0 0 1-3.961 3.96c-.412 0-.804-.068-1.167-.186l-3.392 3.393c1.431.803 2.98 1.225 4.559 1.225 1.745 0 3.441-.51 4.99-1.46 1.55-.962 2.941-2.363 4.079-4.148.98-1.53.98-4.039 0-5.578z" fill="#000"/>
    <path d="m14.274 10.667-3.96 3.96a2.845 2.845 0 0 1-.824-1.98 2.81 2.81 0 0 1 2.804-2.804c.765 0 1.47.324 1.98.824z" fill="#000"/>
    <path opacity=".4" d="m18.421 6.52-3.323 3.323a3.908 3.908 0 0 0-2.804-1.157 3.956 3.956 0 0 0-3.96 3.961c0 1.098.44 2.088 1.156 2.804l-3.314 3.323h-.01c-1.088-.882-2.088-2.01-2.94-3.343-.981-1.539-.981-4.039 0-5.578 1.137-1.784 2.529-3.186 4.078-4.147 1.549-.941 3.245-1.46 4.99-1.46 2.186 0 4.304.803 6.127 2.274z" fill="#000"/>
    <path d="M15.098 12.647a2.81 2.81 0 0 1-2.804 2.804c-.059 0-.108 0-.167-.02l2.951-2.95c.02.058.02.107.02.166zM21.872 3.069a.757.757 0 0 0-1.068 0L2.715 21.167a.757.757 0 0 0 0 1.068.743.743 0 0 0 1.059-.01L21.872 4.129a.729.729 0 0 0 0-1.06z" fill="#000"/>
</svg>
