<svg width="25" height="25" viewBox="0 0 38 38" fill="none" xmlns="http://www.w3.org/2000/svg">
    <path opacity=".4" d="M33.646 14.487C29.99 8.74 24.637 5.431 19 5.431c-2.818 0-5.557.823-8.059 2.359-2.502 1.551-4.75 3.816-6.587 6.697-1.583 2.486-1.583 6.524 0 9.01 3.658 5.763 9.01 9.056 14.646 9.056 2.819 0 5.558-.823 8.06-2.359 2.501-1.552 4.75-3.816 6.586-6.697 1.584-2.47 1.584-6.524 0-9.01zM19 25.397A6.389 6.389 0 0 1 12.604 19c0-3.531 2.85-6.397 6.396-6.397A6.389 6.389 0 0 1 25.397 19c0 3.53-2.85 6.396-6.397 6.396z" fill="#292D32"/>
    <path d="M19 14.472a4.52 4.52 0 0 0 0 9.04c2.486 0 4.528-2.026 4.528-4.512 0-2.486-2.042-4.528-4.528-4.528z" fill="#292D32"/>
</svg>
