<?xml version="1.0" encoding="utf-8"?>
<!-- Generator: Adobe Illustrator 22.0.0, SVG Export Plug-In . SVG Version: 6.00 Build 0)  -->
<svg version="1.1" id="Capa_1" xmlns="http://www.w3.org/2000/svg" xmlns:xlink="http://www.w3.org/1999/xlink" x="0px" y="0px"
	 viewBox="0 0 1500 1500" style="enable-background:new 0 0 1500 1500;" xml:space="preserve">
<style type="text/css">
	.st0{fill:#0099FF;}
	.st1{fill:#0066FF;}
	.st2{fill:url(#SVGID_1_);}
	.st3{fill:#FFFFFF;}
</style>
<g>
	<path class="st0" d="M929.3,999.6c-8.2,4.2-14.7,7.6-21.3,10.9c-99.5,48.8-201.2,52.9-304.6,13.7
		c-91.2-34.5-145.5-101.3-170.7-194.4c-20.8-77.1-25.4-155.6-19.8-234.5c4.4-61.2,15-122,39.9-178.6
		c44.9-102.1,122.9-165.6,231.9-190.1c46.9-10.5,94-7.4,140.7,2.1c56.3,11.4,108.1,33.8,156.4,64.6c11.4,7.3,13.5,13.4,8.5,26.1
		c-14,35.8-28,71.6-42.1,107.3c-6.1,15.4-16.3,17.8-28.6,7c-42.7-37.3-91.6-59-148.9-59.3c-82.6-0.3-136.4,37.6-164.1,115.4
		c-13.5,37.9-18.8,77.3-20.5,117.1c-2.3,54.6,1.8,108.7,12.8,162.3c12.9,62.9,51.9,102.2,111.4,121.3c53.1,17,104,11.5,148.8-24.6
		c29-23.4,42.6-55.4,48.7-91.3c3.2-18.9,3.8-38,3.9-57.1c0.1-22.3-0.1-44.6,0.1-66.9c0.1-12.3,5.6-18.4,17-18.4
		c47.8-0.2,95.6-0.2,143.4,0c11.1,0,17,6.3,17,17.6c0,117.4,0.3,234.8-0.3,352.2c-0.3,63.7-19.7,121.1-62,169.7
		c-25.9,29.8-57.6,52.5-92.6,70.5c-24.5,12.6-49.5,24.3-74.9,35.1c-11,4.7-16.9,3-23.6-7.1c-18.2-27.1-36.3-54.3-54.3-81.5
		c-7.5-11.3-4.9-20.1,7.3-25.7c14.7-6.7,29.4-13.6,43.2-22c45.3-27.7,77.7-65.3,90.6-117.9C924.5,1016,926.8,1008.7,929.3,999.6z"/>
	<path class="st0" d="M919.3,526.5c0.2-41.8,33.3-74.6,75-74.3c41.6,0.3,74.5,33.7,74.2,75.3c-0.3,41.2-34.2,74.5-75.6,74.1
		C951.9,601.1,919,567.6,919.3,526.5z M992.9,585.6c21.2,7.8,51.3-9.5,62.1-34.9c10.5-24.8,1.9-58.7-18.4-68.2
		c10.3,20.9,13.2,41.7,4.2,62.8C1031.9,566.4,1014.9,578.7,992.9,585.6z"/>
</g>
</svg>
