<svg width="38" height="36" viewBox="0 0 38 36" fill="none" xmlns="http://www.w3.org/2000/svg">
    <path d="M30.115 5.51c-3.071-3.071-6.08-3.15-9.23 0l-1.916 1.916a.66.66 0 0 0-.159.633c1.204 4.196 4.56 7.553 8.756 8.756.064.016.127.032.19.032a.634.634 0 0 0 .46-.19l1.9-1.916c1.567-1.551 2.327-3.056 2.327-4.576.016-1.567-.744-3.087-2.328-4.655zM24.716 18.256c-.459-.222-.902-.444-1.33-.697-.348-.206-.68-.427-1.013-.665a9.575 9.575 0 0 1-.887-.68 1.941 1.941 0 0 1-.269-.238 13.398 13.398 0 0 1-1.63-1.647c-.048-.032-.128-.142-.238-.285-.159-.19-.428-.507-.665-.87a8.693 8.693 0 0 1-.618-.935 20.447 20.447 0 0 1-.697-1.298c-.1-.215-.19-.427-.274-.634a.51.51 0 0 0-.831-.176l-9.392 9.391c-.206.206-.396.602-.443.871l-.855 6.064c-.159 1.077.142 2.09.807 2.771.57.554 1.362.855 2.217.855.19 0 .38-.016.57-.047l6.08-.855c.285-.048.68-.238.87-.444l9.385-9.384a.518.518 0 0 0-.179-.841c-.197-.08-.398-.165-.608-.256z" fill="#fff"/>
</svg>
