<svg width="148" height="147" viewBox="0 0 148 147" fill="none" xmlns="http://www.w3.org/2000/svg">
    <path fill="#DC3545" d="M25.092 23.83h97.362v98.837H25.092z"/>
    <path d="M12.098 62.942v21.365c0 1.732-.442 2.899-1.113 3.78-.635.834-.981.834-1.199.834h-.02c-.217 0-.563 0-1.198-.834-.672-.881-1.113-2.048-1.113-3.78V62.942c0-1.733.441-2.9 1.113-3.781.635-.834.981-.834 1.199-.834h.02c.217 0 .563 0 1.198.834.671.882 1.113 2.048 1.113 3.78zM140.091 62.942v21.365c0 1.732-.441 2.899-1.113 3.78-.635.834-.981.834-1.199.834h-.019c-.218 0-.564 0-1.199-.834-.671-.881-1.113-2.048-1.113-3.78V62.942c0-1.733.442-2.9 1.113-3.781.635-.834.981-.834 1.199-.834h.019c.218 0 .564 0 1.199.834.672.882 1.113 2.048 1.113 3.78zM62.729 7.667h21.365c1.733 0 2.899.442 3.78 1.114.835.635.834.98.834 1.198V10c0 .217 0 .563-.833 1.198-.882.672-2.048 1.114-3.781 1.114H62.729c-1.733 0-2.9-.442-3.781-1.114-.834-.635-.834-.98-.834-1.198v-.02c0-.217 0-.563.834-1.198.882-.672 2.048-1.114 3.78-1.114zM62.729 134.214h21.365c1.733 0 2.899.442 3.78 1.114.835.635.834.981.834 1.198v.02c0 .217 0 .563-.833 1.198-.882.672-2.048 1.114-3.781 1.114H62.729c-1.733 0-2.9-.442-3.781-1.114-.834-.635-.834-.981-.834-1.198v-.02c0-.217 0-.563.834-1.198.882-.672 2.048-1.114 3.78-1.114z" fill="#DC3545" stroke="#DC3545" stroke-width="10"/>
    <path d="M62.048 67.733a1.322 1.322 0 0 1-1.312-1.312v-6.123c0-1.89-1.172-3.062-3.061-3.062h-5.249c-1.889 0-3.061 1.172-3.061 3.062v6.123c0 .717-.595 1.312-1.312 1.312a1.322 1.322 0 0 1-1.312-1.312v-6.123c0-3.342 2.344-5.686 5.685-5.686h5.249c3.341 0 5.685 2.344 5.685 5.686v6.123c0 .717-.595 1.312-1.312 1.312z" fill="#fff"/>
    <path d="M48.051 83.53a1.322 1.322 0 0 1-1.312-1.312 1.31 1.31 0 0 1 1.312-1.312h20.573a.883.883 0 0 0 .875-.98l-1.19-9.954c-.42-3.394-1.014-6.176-6.962-6.176H48.75c-5.948 0-6.543 2.782-6.945 6.176l-1.575 13.12c-.507 4.304.823 7.82 6.963 7.82h15.71c5.528 0 7.155-2.851 7.067-6.56a.856.856 0 0 0-.874-.822H48.05z" fill="#fff"/>
    <path d="M68.345 60.072c-1.184 0-2.15.966-2.15 2.15v3.448h-3.448c-1.184 0-2.15.966-2.15 2.15s.966 2.15 2.15 2.15h3.449v3.448c0 1.184.965 2.15 2.15 2.15 1.183 0 2.149-.966 2.149-2.15v-3.449h3.448c1.184 0 2.15-.965 2.15-2.15 0-1.183-.966-2.149-2.15-2.149h-3.448v-3.448c0-1.184-.966-2.15-2.15-2.15z" fill="#fff" stroke="#DC3545" stroke-width="1.5"/>
    <path opacity=".4" d="M110.216 60.947c-3.486-3.485-6.9-3.575-10.475 0l-2.174 2.174c-.18.18-.252.467-.18.719 1.366 4.761 5.175 8.57 9.936 9.936.072.018.144.036.216.036a.721.721 0 0 0 .521-.216l2.156-2.174c1.778-1.76 2.641-3.468 2.641-5.192.018-1.78-.845-3.504-2.641-5.283z" fill="#fff"/>
    <path d="M104.089 75.41a19.951 19.951 0 0 1-1.509-.79 15.602 15.602 0 0 1-1.15-.755 10.714 10.714 0 0 1-1.006-.772 2.185 2.185 0 0 1-.306-.27 15.208 15.208 0 0 1-1.85-1.868c-.054-.036-.144-.162-.27-.324-.18-.215-.485-.575-.755-.988a9.868 9.868 0 0 1-.7-1.06c-.288-.485-.54-.97-.79-1.473-.252-.54-.45-1.06-.63-1.545L83.84 76.848c-.233.234-.449.683-.503.988l-.97 6.881c-.18 1.222.162 2.372.916 3.145.647.629 1.545.97 2.516.97.215 0 .43-.018.646-.054l6.9-.97c.323-.054.772-.27.988-.503l11.283-11.284c-.503-.18-.988-.377-1.527-.61z" fill="#fff"/>
</svg>
