<svg width="200" height="93" viewBox="0 0 200 93" fill="none" xmlns="http://www.w3.org/2000/svg">
    <path fill-rule="evenodd" clip-rule="evenodd" d="M72.677 35.999h-5.943c-1.053 0-1.91.898-1.91 2v39.155c0 1.104.857 2.003 1.91 2.003h5.943c1.053 0 1.91-.899 1.91-2.002V38c0-1.102-.857-2.001-1.91-2.001zm-.053-6.041c-1.008.582-2.206.757-3.255.475 1.049-.274 1.96-.709 2.696-1.332a6.032 6.032 0 0 0 1.672-2.276c.351-.863.485-1.834.402-2.814-.086-.979-.416-1.948-.969-2.905.939.562 1.658 1.567 1.96 2.71.307 1.13.269 2.397-.2 3.52a5.414 5.414 0 0 1-2.306 2.622zM74.2 20.64a6.22 6.22 0 0 0-4.536-1.907c-1.693 0-3.235.66-4.455 1.91-1.219 1.249-1.862 2.855-1.862 4.647 0 1.738.646 3.316 1.862 4.563 1.219 1.25 2.758 1.91 4.455 1.91 1.75 0 3.318-.66 4.54-1.91 1.216-1.25 1.86-2.826 1.86-4.563 0-1.79-.644-3.397-1.864-4.65zm41.25 15.359h-6.704a1.877 1.877 0 0 0-1.136.39 1.95 1.95 0 0 0-.684 1.007l-7.36 24.377L92.26 37.4a1.953 1.953 0 0 0-.685-1.012 1.876 1.876 0 0 0-1.14-.39h-6.633c-.615 0-1.199.315-1.556.841a2.083 2.083 0 0 0-.248 1.814l12.99 39.112c.127.389.37.727.693.967.323.24.711.372 1.111.375h5.528c.811 0 1.536-.538 1.803-1.337l13.129-39.11a2.094 2.094 0 0 0-.244-1.82 1.92 1.92 0 0 0-.678-.617 1.871 1.871 0 0 0-.881-.225m41.045 0h-6.703c-.41 0-.808.137-1.137.39a1.958 1.958 0 0 0-.685 1.007l-7.361 24.377-7.304-24.372a1.952 1.952 0 0 0-.685-1.011 1.876 1.876 0 0 0-1.139-.391h-6.633c-.618 0-1.2.315-1.554.838a2.07 2.07 0 0 0-.25 1.817l12.99 39.112c.267.801.993 1.342 1.804 1.342h5.528c.811 0 1.536-.538 1.803-1.337l13.128-39.11a2.08 2.08 0 0 0-.242-1.82 1.914 1.914 0 0 0-.679-.617 1.869 1.869 0 0 0-.881-.225zm43.155.814a1.94 1.94 0 0 0-.683-.6 1.887 1.887 0 0 0-.875-.215h-6.981c-.829 0-1.559.535-1.816 1.33l-6.03 18.608-1.446 5.033-7.049-23.598c-.12-.4-.363-.75-.693-.998a1.864 1.864 0 0 0-1.137-.375h-7.049c-.617 0-1.2.304-1.557.813a1.934 1.934 0 0 0-.246 1.75l2.431 7.049 5.062 14.665c1.452 4.203 2.14 5.984 3.591 10.19l.35 1.011c.059.174.123.35.181.525.849 2.636.637 5.271-.881 6.925-.989 1.077-4.122 3.828-4.739 4.228-.381.25-.774.682-.861 1.074-.119.519.194 1.115.461 1.542 0 0 2.972 4.55 2.975 4.55.949 1.464 1.545 1.417 3.105.601 1.903-.992 4.476-2.757 6.468-5.238 1.964-2.448 3.039-5.344 3.774-7.374l13.888-39.743a1.944 1.944 0 0 0-.244-1.754M26.04 13.995c8.765-2.167 14.98 2.416 17.555 4.859a1.233 1.233 0 0 0 1.688.029c.156-.14.276-.315.35-.512L49.49 8.275c.116-.3.128-.632.034-.94a1.401 1.401 0 0 0-.553-.75C35.04-2.685 23.263.545 23.263.545l-.97.236C12.18 3.307 4.39 11.46 1.959 22.057.968 26.375 0 31.018 0 36.092c0 6.261.426 11.186 1.266 14.634.9 3.702 1.83 7.528 4.117 10.666 2.714 3.728 5.46 6.223 8.404 7.626 4.825 2.304 9.494 3.424 14.27 3.424 1.984 0 4.002-.202 6-.601a33.314 33.314 0 0 0 4.922-1.356c1.599-.585 3.081-1.38 4.585-2.176l.62-.327-.806 2.937a14.584 14.584 0 0 1-.848 2.295c-.75 1.604-1.937 3.212-3.528 4.785-1.591 1.57-3.942 3.043-6.987 4.374a1.298 1.298 0 0 0-.459.338 1.359 1.359 0 0 0-.11 1.623l4.919 7.558c.166.258.415.448.704.537.288.09.599.072.876-.049a101.45 101.45 0 0 0 6.77-3.25 27.932 27.932 0 0 0 6.39-4.614c1.933-1.866 3.542-4.21 4.783-6.966 1.249-2.781 1.882-6.252 1.882-10.318V37.328c0-.765-.604-1.385-1.35-1.385H44.023c-.747 0-1.353.619-1.353 1.386v6.488c0 6.388-1.572 10.413-5.1 13.054-2.1 1.572-4.7 2.404-7.514 2.404-5.314 0-10.425-2.983-12.72-7.422-.943-1.827-1.133-2.877-1.59-5.42l-.094-.53c-.519-2.875-.78-6.126-.78-9.66 0-9.583 2.153-16.257 6.4-19.856.363-.307.757-.57 1.158-.824a12.244 12.244 0 0 1 3.61-1.568z" fill="#fff"/>
</svg>
