<svg width="148" height="147" viewBox="0 0 148 147" fill="none" xmlns="http://www.w3.org/2000/svg">
    <path fill="#09F" d="M25.121 23.83h97.362v98.837H25.121z"/>
    <path d="M12.126 62.942v21.365c0 1.733-.441 2.899-1.113 3.78-.635.835-.98.834-1.198.834h-.02c-.218 0-.563 0-1.199-.833-.671-.882-1.113-2.048-1.113-3.781V62.942c0-1.733.442-2.9 1.113-3.781.636-.834.981-.834 1.199-.834h.02c.217 0 .563 0 1.198.834.672.882 1.113 2.048 1.113 3.78zM140.12 62.942v21.365c0 1.733-.442 2.899-1.114 3.78-.635.835-.981.834-1.198.834h-.02c-.217 0-.563 0-1.198-.833-.672-.882-1.114-2.048-1.114-3.781V62.942c0-1.733.442-2.9 1.114-3.781.635-.834.981-.834 1.198-.834h.02c.217 0 .563 0 1.198.834.672.882 1.114 2.048 1.114 3.78zM62.757 7.667h21.365c1.733 0 2.9.442 3.781 1.114.834.635.834.98.834 1.198V10c0 .217 0 .563-.834 1.198-.882.672-2.048 1.114-3.78 1.114H62.756c-1.732 0-2.899-.442-3.78-1.114-.835-.635-.834-.98-.834-1.198v-.02c0-.217 0-.563.833-1.198.882-.672 2.049-1.114 3.781-1.114zM62.757 134.215h21.365c1.733 0 2.9.441 3.781 1.113.834.635.834.981.834 1.199v.019c0 .218 0 .563-.834 1.199-.882.671-2.048 1.113-3.78 1.113H62.756c-1.732 0-2.899-.442-3.78-1.113-.835-.636-.834-.981-.834-1.199v-.019c0-.218 0-.564.833-1.199.882-.672 2.049-1.113 3.781-1.113z" fill="#09F" stroke="#09F" stroke-width="10"/>
</svg>
