<svg width="148" height="147" viewBox="0 0 148 147" fill="none" xmlns="http://www.w3.org/2000/svg">
    <path fill="#28A745" d="M25.092 23.83h97.362v98.837H25.092z"/>
    <path d="M12.098 62.942v21.365c0 1.733-.442 2.899-1.113 3.78-.635.835-.981.834-1.199.834h-.02c-.217 0-.563 0-1.198-.833-.672-.882-1.113-2.048-1.113-3.781V62.942c0-1.733.441-2.9 1.113-3.781.635-.834.981-.834 1.199-.834h.02c.217 0 .563 0 1.198.834.671.882 1.113 2.048 1.113 3.78zM140.091 62.942v21.365c0 1.733-.441 2.899-1.113 3.78-.635.835-.981.834-1.199.834h-.019c-.218 0-.564 0-1.199-.833-.671-.882-1.113-2.048-1.113-3.781V62.942c0-1.733.442-2.9 1.113-3.781.635-.834.981-.834 1.199-.834h.019c.218 0 .564 0 1.199.834.672.882 1.113 2.048 1.113 3.78zM62.729 7.668h21.365c1.733 0 2.899.441 3.78 1.113.835.635.834.981.834 1.199v.019c0 .218 0 .563-.833 1.199-.882.671-2.048 1.113-3.781 1.113H62.729c-1.733 0-2.9-.442-3.781-1.113-.834-.636-.834-.981-.834-1.199v-.02c0-.217 0-.563.834-1.198.882-.672 2.048-1.113 3.78-1.113zM62.729 134.215h21.365c1.733 0 2.899.441 3.78 1.113.835.635.834.981.834 1.199v.019c0 .218 0 .564-.833 1.199-.882.671-2.048 1.113-3.781 1.113H62.729c-1.733 0-2.9-.442-3.781-1.113-.834-.635-.834-.981-.834-1.199v-.019c0-.218 0-.564.834-1.199.882-.672 2.048-1.113 3.78-1.113z" fill="#28A745" stroke="#28A745" stroke-width="10"/>
</svg>
