<svg width="44" height="44" viewBox="0 0 44 44" fill="none" xmlns="http://www.w3.org/2000/svg">
    <path opacity=".4" d="M29.677 3.94H14.621c-6.54 0-10.439 3.9-10.439 10.44v15.038c0 6.558 3.899 10.456 10.439 10.456h15.038c6.54 0 10.439-3.898 10.439-10.438V14.379c.018-6.54-3.881-10.438-10.421-10.438z" fill="#09F"/>
    <path d="M24.413 29.598c-.342 0-.683-.126-.953-.396l-6.342-6.342a1.356 1.356 0 0 1 0-1.904l6.343-6.343a1.356 1.356 0 0 1 1.904 0 1.356 1.356 0 0 1 0 1.905l-5.39 5.39 5.39 5.39a1.356 1.356 0 0 1 0 1.904c-.252.27-.593.396-.952.396z" fill="#09F"/>
</svg>
